<mxfile host="Electron" modified="2023-07-20T09:51:18.246Z" agent="Mozilla/5.0 (Windows NT 10.0; Win64; x64) AppleWebKit/537.36 (KHTML, like Gecko) draw.io/21.6.1 Chrome/112.0.5615.204 Electron/24.6.1 Safari/537.36" etag="kj26oT9i0wQDqe_0OWKG" version="21.6.1" type="device">
  <diagram name="Page-1" id="qpV1697xvqeQXFISAnta">
    <mxGraphModel dx="504" dy="707" grid="1" gridSize="10" guides="1" tooltips="1" connect="1" arrows="1" fold="1" page="1" pageScale="1" pageWidth="827" pageHeight="1169" math="0" shadow="0">
      <root>
        <mxCell id="0" />
        <mxCell id="1" parent="0" />
        <mxCell id="zIrn6PvFJXvHQdIse-j1-1" value="" style="ellipse;html=1;shape=startState;fillColor=#000000;strokeColor=#ff0000;" vertex="1" parent="1">
          <mxGeometry x="180" y="80" width="30" height="30" as="geometry" />
        </mxCell>
        <mxCell id="zIrn6PvFJXvHQdIse-j1-2" value="" style="edgeStyle=orthogonalEdgeStyle;html=1;verticalAlign=bottom;endArrow=open;endSize=8;strokeColor=#ff0000;rounded=0;" edge="1" source="zIrn6PvFJXvHQdIse-j1-1" parent="1">
          <mxGeometry relative="1" as="geometry">
            <mxPoint x="195" y="170" as="targetPoint" />
          </mxGeometry>
        </mxCell>
        <mxCell id="zIrn6PvFJXvHQdIse-j1-6" value="ecrire nombre1" style="rounded=1;whiteSpace=wrap;html=1;arcSize=40;fontColor=#000000;fillColor=#ffffc0;strokeColor=#ff0000;" vertex="1" parent="1">
          <mxGeometry x="135" y="180" width="120" height="40" as="geometry" />
        </mxCell>
        <mxCell id="zIrn6PvFJXvHQdIse-j1-7" value="" style="edgeStyle=orthogonalEdgeStyle;html=1;verticalAlign=bottom;endArrow=open;endSize=8;strokeColor=#ff0000;rounded=0;" edge="1" source="zIrn6PvFJXvHQdIse-j1-6" parent="1">
          <mxGeometry relative="1" as="geometry">
            <mxPoint x="195" y="280" as="targetPoint" />
          </mxGeometry>
        </mxCell>
        <mxCell id="zIrn6PvFJXvHQdIse-j1-8" value="lire nombre1" style="rounded=1;whiteSpace=wrap;html=1;arcSize=40;fontColor=#000000;fillColor=#ffffc0;strokeColor=#ff0000;" vertex="1" parent="1">
          <mxGeometry x="135" y="280" width="120" height="40" as="geometry" />
        </mxCell>
        <mxCell id="zIrn6PvFJXvHQdIse-j1-9" value="" style="edgeStyle=orthogonalEdgeStyle;html=1;verticalAlign=bottom;endArrow=open;endSize=8;strokeColor=#ff0000;rounded=0;" edge="1" source="zIrn6PvFJXvHQdIse-j1-8" parent="1">
          <mxGeometry relative="1" as="geometry">
            <mxPoint x="195" y="380" as="targetPoint" />
          </mxGeometry>
        </mxCell>
        <mxCell id="zIrn6PvFJXvHQdIse-j1-10" value="ecrire nombre2" style="rounded=1;whiteSpace=wrap;html=1;arcSize=40;fontColor=#000000;fillColor=#ffffc0;strokeColor=#ff0000;" vertex="1" parent="1">
          <mxGeometry x="135" y="380" width="120" height="40" as="geometry" />
        </mxCell>
        <mxCell id="zIrn6PvFJXvHQdIse-j1-11" value="" style="edgeStyle=orthogonalEdgeStyle;html=1;verticalAlign=bottom;endArrow=open;endSize=8;strokeColor=#ff0000;rounded=0;" edge="1" source="zIrn6PvFJXvHQdIse-j1-10" parent="1">
          <mxGeometry relative="1" as="geometry">
            <mxPoint x="195" y="480" as="targetPoint" />
          </mxGeometry>
        </mxCell>
        <mxCell id="zIrn6PvFJXvHQdIse-j1-12" value="lire nombre2" style="rounded=1;whiteSpace=wrap;html=1;arcSize=40;fontColor=#000000;fillColor=#ffffc0;strokeColor=#ff0000;" vertex="1" parent="1">
          <mxGeometry x="135" y="485" width="120" height="40" as="geometry" />
        </mxCell>
        <mxCell id="zIrn6PvFJXvHQdIse-j1-13" value="" style="edgeStyle=orthogonalEdgeStyle;html=1;verticalAlign=bottom;endArrow=open;endSize=8;strokeColor=#ff0000;rounded=0;" edge="1" source="zIrn6PvFJXvHQdIse-j1-12" parent="1">
          <mxGeometry relative="1" as="geometry">
            <mxPoint x="195" y="585" as="targetPoint" />
          </mxGeometry>
        </mxCell>
        <mxCell id="zIrn6PvFJXvHQdIse-j1-16" value="A&amp;gt;B" style="rhombus;whiteSpace=wrap;html=1;fontColor=#000000;fillColor=#ffffc0;strokeColor=#ff0000;" vertex="1" parent="1">
          <mxGeometry x="120" y="580" width="140" height="95" as="geometry" />
        </mxCell>
        <mxCell id="zIrn6PvFJXvHQdIse-j1-17" value="no" style="edgeStyle=orthogonalEdgeStyle;html=1;align=left;verticalAlign=bottom;endArrow=open;endSize=8;strokeColor=#ff0000;rounded=0;" edge="1" source="zIrn6PvFJXvHQdIse-j1-16" parent="1">
          <mxGeometry x="-1" relative="1" as="geometry">
            <mxPoint x="350" y="600" as="targetPoint" />
            <Array as="points">
              <mxPoint x="280" y="628" />
              <mxPoint x="280" y="601" />
            </Array>
          </mxGeometry>
        </mxCell>
        <mxCell id="zIrn6PvFJXvHQdIse-j1-18" value="yes" style="edgeStyle=orthogonalEdgeStyle;html=1;align=left;verticalAlign=top;endArrow=open;endSize=8;strokeColor=#ff0000;rounded=0;" edge="1" source="zIrn6PvFJXvHQdIse-j1-16" parent="1">
          <mxGeometry x="-1" relative="1" as="geometry">
            <mxPoint x="190" y="740" as="targetPoint" />
            <Array as="points">
              <mxPoint x="190" y="730" />
            </Array>
          </mxGeometry>
        </mxCell>
        <mxCell id="zIrn6PvFJXvHQdIse-j1-19" value="ecrire A supeerieur a B" style="rounded=1;whiteSpace=wrap;html=1;arcSize=40;fontColor=#000000;fillColor=#ffffc0;strokeColor=#ff0000;" vertex="1" parent="1">
          <mxGeometry x="130" y="740" width="120" height="40" as="geometry" />
        </mxCell>
        <mxCell id="zIrn6PvFJXvHQdIse-j1-20" value="" style="edgeStyle=orthogonalEdgeStyle;html=1;verticalAlign=bottom;endArrow=open;endSize=8;strokeColor=#ff0000;rounded=0;" edge="1" source="zIrn6PvFJXvHQdIse-j1-19" parent="1">
          <mxGeometry relative="1" as="geometry">
            <mxPoint x="190" y="840" as="targetPoint" />
          </mxGeometry>
        </mxCell>
        <mxCell id="zIrn6PvFJXvHQdIse-j1-28" value="" style="edgeStyle=orthogonalEdgeStyle;rounded=0;orthogonalLoop=1;jettySize=auto;html=1;" edge="1" parent="1" source="zIrn6PvFJXvHQdIse-j1-21" target="zIrn6PvFJXvHQdIse-j1-24">
          <mxGeometry relative="1" as="geometry" />
        </mxCell>
        <mxCell id="zIrn6PvFJXvHQdIse-j1-21" value="ecrire B est superieur a A" style="rounded=1;whiteSpace=wrap;html=1;arcSize=40;fontColor=#000000;fillColor=#ffffc0;strokeColor=#ff0000;" vertex="1" parent="1">
          <mxGeometry x="340" y="690" width="120" height="40" as="geometry" />
        </mxCell>
        <mxCell id="zIrn6PvFJXvHQdIse-j1-23" value="" style="ellipse;html=1;shape=endState;fillColor=#000000;strokeColor=#ff0000;" vertex="1" parent="1">
          <mxGeometry x="175" y="840" width="30" height="30" as="geometry" />
        </mxCell>
        <mxCell id="zIrn6PvFJXvHQdIse-j1-24" value="" style="ellipse;html=1;shape=endState;fillColor=#000000;strokeColor=#ff0000;" vertex="1" parent="1">
          <mxGeometry x="385" y="800" width="30" height="30" as="geometry" />
        </mxCell>
        <mxCell id="zIrn6PvFJXvHQdIse-j1-25" value="B&amp;gt;A" style="rhombus;whiteSpace=wrap;html=1;fontColor=#000000;fillColor=#ffffc0;strokeColor=#ff0000;" vertex="1" parent="1">
          <mxGeometry x="335" y="570" width="130" height="70" as="geometry" />
        </mxCell>
        <mxCell id="zIrn6PvFJXvHQdIse-j1-26" value="no" style="edgeStyle=orthogonalEdgeStyle;html=1;align=left;verticalAlign=bottom;endArrow=open;endSize=8;strokeColor=#ff0000;rounded=0;" edge="1" source="zIrn6PvFJXvHQdIse-j1-25" parent="1">
          <mxGeometry x="-1" relative="1" as="geometry">
            <mxPoint x="540" y="610" as="targetPoint" />
          </mxGeometry>
        </mxCell>
        <mxCell id="zIrn6PvFJXvHQdIse-j1-27" value="yes" style="edgeStyle=orthogonalEdgeStyle;html=1;align=left;verticalAlign=top;endArrow=open;endSize=8;strokeColor=#ff0000;rounded=0;" edge="1" source="zIrn6PvFJXvHQdIse-j1-25" parent="1">
          <mxGeometry x="-1" relative="1" as="geometry">
            <mxPoint x="400" y="690" as="targetPoint" />
          </mxGeometry>
        </mxCell>
        <mxCell id="zIrn6PvFJXvHQdIse-j1-29" value="Nombres sont egaux" style="rounded=1;whiteSpace=wrap;html=1;arcSize=40;fontColor=#000000;fillColor=#ffffc0;strokeColor=#ff0000;" vertex="1" parent="1">
          <mxGeometry x="530" y="600" width="120" height="40" as="geometry" />
        </mxCell>
        <mxCell id="zIrn6PvFJXvHQdIse-j1-30" value="" style="edgeStyle=orthogonalEdgeStyle;html=1;verticalAlign=bottom;endArrow=open;endSize=8;strokeColor=#ff0000;rounded=0;" edge="1" source="zIrn6PvFJXvHQdIse-j1-29" parent="1">
          <mxGeometry relative="1" as="geometry">
            <mxPoint x="590" y="700" as="targetPoint" />
          </mxGeometry>
        </mxCell>
        <mxCell id="zIrn6PvFJXvHQdIse-j1-31" value="" style="ellipse;html=1;shape=endState;fillColor=#000000;strokeColor=#ff0000;" vertex="1" parent="1">
          <mxGeometry x="575" y="700" width="30" height="30" as="geometry" />
        </mxCell>
        <mxCell id="zIrn6PvFJXvHQdIse-j1-32" value="yes" style="text;html=1;align=center;verticalAlign=middle;resizable=0;points=[];autosize=1;strokeColor=none;fillColor=none;" vertex="1" parent="1">
          <mxGeometry x="550" y="658" width="40" height="30" as="geometry" />
        </mxCell>
      </root>
    </mxGraphModel>
  </diagram>
</mxfile>
